<?xml version="1.0" encoding="UTF-8"?>
<svg version="1.1" xmlns="http://www.w3.org/2000/svg" width="4177" height="3385">
<path d="M0 0 C1378.41 0 2756.82 0 4177 0 C4177 1117.05 4177 2234.1 4177 3385 C2798.59 3385 1420.18 3385 0 3385 C0 2267.95 0 1150.9 0 0 Z " fill="#474D45" transform="translate(0,0)"/>
<path d="M0 0 C-3 7 -3 7 -7.625 13.125 C-12.26815211 18.48447303 -12.26815211 18.48447303 -13 24 C-15.475 26.475 -15.475 26.475 -18 29 C-21.46890221 34.04850713 -21.46890221 34.04850713 -22 41 C-23.98 43.475 -23.98 43.475 -26 46 C-26.33 46.66 -26.66 47.32 -27 48 C-27.66 48 -28.32 48 -29 48 C-29.99 50.475 -29.99 50.475 -31 53 C-31.33 53.66 -31.66 54.32 -32 55 C-30.515 55.495 -30.515 55.495 -29 56 C-31.475 56.495 -31.475 56.495 -34 57 C-34.66 58.98 -35.32 60.96 -36 63 C-36.495 63.495 -36.495 63.495 -37 64 C-37 66.31 -37 68.62 -37 71 C-39.31 72.98 -41.62 74.96 -44 77 C-44.66 78.65 -45.32 80.3 -46 82 C-46.33 81.01 -46.66 80.02 -47 79 C-47.99 79.99 -48.98 80.98 -50 82 C-48.48723542 75.94894167 -45.7206424 70.96085653 -42 66 C-41.34 64.35 -40.68 62.7 -40 61 C-38.68 59.02 -37.36 57.04 -36 55 C-35.34 53.02 -34.68 51.04 -34 49 C-31.33333333 44.33333333 -28.66666667 39.66666667 -26 35 C-23.95377122 30.68830364 -21.93833929 26.36126341 -20 22 C-19.34 22 -18.68 22 -18 22 C-17.67 20.35 -17.34 18.7 -17 17 C-12 10 -12 10 -10 10 C-9.34 8.68 -8.68 7.36 -8 6 C-4.44444444 -1.11111111 -4.44444444 -1.11111111 0 0 Z " fill="#C0C6C0" transform="translate(918,828)"/>
<path d="M0 0 C0 8 0 8 -5 15 C-7.02794029 19.98873312 -9.02957649 24.98827064 -11 30 C-11.99 31.32 -12.98 32.64 -14 34 C-14 34.99 -14 35.98 -14 37 C-17 43 -17 43 -22 49 C-22.66 50.98 -23.32 52.96 -24 55 C-28 64 -28 64 -30 66 C-30.33 68.31 -30.66 70.62 -31 73 C-31.99 74.65 -32.98 76.3 -34 78 C-35.36693363 81.31969597 -36.70524413 84.65149345 -38 88 C-41 88 -41 88 -42 86 C-40.07910328 80.96908002 -38.0657833 75.97318202 -36 71 C-35.21625 69.081875 -34.4325 67.16375 -33.625 65.1875 C-30.1848065 57.07847247 -26.58827431 49.04467949 -23 41 C-22.01 38.69 -21.02 36.38 -20 34 C-19.34 34 -18.68 34 -18 34 C-17.34 32.02 -16.68 30.04 -16 28 C-14.68 25.36 -13.36 22.72 -12 20 C-11.34 18.35 -10.68 16.7 -10 15 C-3.25842697 0 -3.25842697 0 0 0 Z " fill="#C1C5C1" transform="translate(813,1028)"/>
</svg>
